<svg width="61" height="33" fill="none" xmlns="http://www.w3.org/2000/svg">
    <path d="M29.704.096h-1.736v1.78h1.736V.095zM31.673.096h-1.735v1.78h1.735V.095zM37.601.096h-1.736v1.78h1.736V.095zM35.631.096h-1.755v1.78h1.755V.095zM8.527 4.108H6.792v1.78h1.735v-1.78zM2.6 10.118H.843v1.78H2.6v-1.78zM4.569 10.118H2.833v1.78H4.57v-1.78zM2.6 8.122H.843v1.76H2.6v-1.76zM2.6 6.125H.843v1.76H2.6v-1.76zM4.569 12.134H2.833v1.76H4.57v-1.76zM8.527 12.134H6.792v1.76h1.735v-1.76zM4.569 4.108H2.833v1.78H4.57v-1.78zM4.569 8.122H2.833v1.76H4.57v-1.76zM4.569 6.125H2.833v1.76H4.57v-1.76zM6.558 4.108H4.803v1.78h1.755v-1.78zM6.558 12.134H4.803v1.76h1.755v-1.76zM18.023 4.108h-1.735v1.78h1.735v-1.78zM18.023 8.122h-1.735v1.76h1.735v-1.76zM18.023 6.125h-1.735v1.76h1.735v-1.76zM18.023 10.118h-1.735v1.78h1.735v-1.78zM19.993 10.118h-1.735v1.78h1.735v-1.78zM19.993 6.125h-1.735v1.76h1.735v-1.76zM19.993 8.122h-1.735v1.76h1.735v-1.76zM16.054 12.134h-1.755v1.76h1.755v-1.76zM14.065 12.134H12.33v1.76h1.735v-1.76zM12.096 6.125H10.34v1.76h1.755v-1.76zM12.096 8.122H10.34v1.76h1.755v-1.76zM18.023 12.134h-1.735v1.76h1.735v-1.76zM12.096 10.118H10.34v1.78h1.755v-1.78zM14.065 10.118H12.33v1.78h1.735v-1.78zM16.054 4.108h-1.755v1.78h1.755v-1.78zM14.065 8.122H12.33v1.76h1.735v-1.76zM14.065 6.125H12.33v1.76h1.735v-1.76zM14.065 4.108H12.33v1.78h1.735v-1.78zM31.673 12.134h-1.735v1.76h1.735v-1.76zM29.704 8.122h-1.736v1.76h1.736v-1.76zM29.704 6.125h-1.736v1.76h1.736v-1.76zM29.704 2.113h-1.736v1.759h1.736v-1.76zM29.704 4.108h-1.736v1.78h1.736v-1.78zM31.673 2.113h-1.735v1.759h1.735v-1.76zM31.673 4.108h-1.735v1.78h1.735v-1.78zM31.673 8.122h-1.735v1.76h1.735v-1.76zM31.673 6.125h-1.735v1.76h1.735v-1.76zM31.673 10.118h-1.735v1.78h1.735v-1.78zM23.776 10.118H22.02v1.78h1.755v-1.78zM25.745 12.134H24.01v1.76h1.735v-1.76zM25.745 6.125H24.01v1.76h1.735v-1.76zM25.745 8.122H24.01v1.76h1.735v-1.76zM23.776 6.125H22.02v1.76h1.755v-1.76zM25.745 10.118H24.01v1.78h1.735v-1.78zM29.704 12.134h-1.736v1.76h1.736v-1.76zM27.735 12.134H25.98v1.76h1.755v-1.76zM25.745 4.108H24.01v1.78h1.735v-1.78zM27.735 4.108H25.98v1.78h1.755v-1.78zM23.776 8.122H22.02v1.76h1.755v-1.76zM29.704 10.118h-1.736v1.78h1.736v-1.78zM35.631 12.134h-1.755v1.76h1.755v-1.76zM37.601 6.125h-1.736v1.76h1.736v-1.76zM37.601 10.118h-1.736v1.78h1.736v-1.78zM37.601 4.108h-1.736v1.78h1.736v-1.78zM37.601 8.122h-1.736v1.76h1.736v-1.76zM35.631 10.118h-1.755v1.78h1.755v-1.78zM35.631 8.122h-1.755v1.76h1.755v-1.76zM35.631 6.125h-1.755v1.76h1.755v-1.76zM37.601 12.134h-1.736v1.76h1.736v-1.76zM35.631 4.108h-1.755v1.78h1.755v-1.78zM47.312 6.125h-1.735v1.76h1.735v-1.76zM41.384 12.134H39.63v1.76h1.755v-1.76zM47.312 4.108h-1.735v1.78h1.735v-1.78zM47.312 10.118h-1.735v1.78h1.735v-1.78zM47.312 12.134h-1.735v1.76h1.735v-1.76zM49.281 12.134h-1.736v1.76h1.736v-1.76zM49.281 8.122h-1.736v1.76h1.736v-1.76zM45.343 4.108h-1.756v1.78h1.755v-1.78zM49.281 6.125h-1.736v1.76h1.736v-1.76zM49.281 10.118h-1.736v1.78h1.736v-1.78zM47.312 8.122h-1.735v1.76h1.735v-1.76zM43.353 12.134h-1.735v1.76h1.735v-1.76zM43.353 4.108h-1.735v1.78h1.735v-1.78zM41.384 6.125H39.63v1.76h1.755v-1.76zM41.384 8.122H39.63v1.76h1.755v-1.76zM41.384 10.118H39.63v1.78h1.755v-1.78zM41.384 4.108H39.63v1.78h1.755v-1.78zM43.353 6.125h-1.735v1.76h1.735v-1.76zM43.353 10.118h-1.735v1.78h1.735v-1.78zM43.353 8.122h-1.735v1.76h1.735v-1.76zM59.031 12.134h-1.735v1.76h1.735v-1.76zM57.062 16.167h-1.756v1.779h1.756v-1.78zM61 4.108h-1.735v1.78h1.736v-1.78zM59.031 14.131h-1.735v1.78h1.735v-1.78zM57.062 12.134h-1.756v1.76h1.756v-1.76zM57.062 4.108h-1.756v1.78h1.756v-1.78zM59.031 16.167h-1.735v1.779h1.735v-1.78zM61 6.125h-1.735v1.76h1.736v-1.76zM61 8.122h-1.735v1.76h1.736v-1.76zM59.031 4.108h-1.735v1.78h1.735v-1.78zM61 14.131h-1.735v1.78h1.736v-1.78zM61 10.118h-1.735v1.78h1.736v-1.78zM55.072 4.108h-1.735v1.78h1.735v-1.78zM59.031 6.125h-1.735v1.76h1.735v-1.76zM61 12.134h-1.735v1.76h1.736v-1.76zM59.031 10.118h-1.735v1.78h1.735v-1.78zM59.031 8.122h-1.735v1.76h1.735v-1.76zM55.072 10.118h-1.735v1.78h1.735v-1.78zM55.072 16.167h-1.735v1.779h1.735v-1.78zM55.072 12.134h-1.735v1.76h1.735v-1.76zM53.103 6.125h-1.755v1.76h1.755v-1.76zM53.103 10.118h-1.755v1.78h1.755v-1.78zM55.072 6.125h-1.735v1.76h1.735v-1.76zM55.072 8.122h-1.735v1.76h1.735v-1.76zM53.103 8.122h-1.755v1.76h1.755v-1.76zM2.6 25.113H.843v1.759H2.6v-1.76zM8.527 31.122H6.792v1.76h1.735v-1.76zM2.6 27.11H.843v1.759H2.6v-1.76zM2.6 29.106H.843v1.78H2.6v-1.78zM8.527 23.097H6.792v1.779h1.735v-1.78zM4.569 25.113H2.833v1.759H4.57v-1.76zM4.569 27.11H2.833v1.759H4.57v-1.76zM6.558 31.122H4.803v1.76h1.755v-1.76zM4.569 31.122H2.833v1.76H4.57v-1.76zM4.569 23.097H2.833v1.779H4.57v-1.78zM4.569 29.106H2.833v1.78H4.57v-1.78zM6.558 23.097H4.803v1.779h1.755v-1.78zM12.096 31.122H10.34v1.76h1.755v-1.76zM12.096 29.106H10.34v1.78h1.755v-1.78zM14.065 25.113H12.33v1.759h1.735v-1.76zM14.065 27.11H12.33v1.759h1.735v-1.76zM14.065 23.097H12.33v1.779h1.735v-1.78zM14.065 21.1H12.33v1.76h1.735V21.1zM14.065 29.106H12.33v1.78h1.735v-1.78zM14.065 19.083H12.33v1.78h1.735v-1.78zM12.096 21.1H10.34v1.76h1.755V21.1zM14.065 31.122H12.33v1.76h1.735v-1.76zM12.096 25.113H10.34v1.759h1.755v-1.76zM12.096 23.097H10.34v1.779h1.755v-1.78zM12.096 19.083H10.34v1.78h1.755v-1.78zM12.096 27.11H10.34v1.759h1.755v-1.76zM25.823 23.097h-1.735v1.779h1.735v-1.78zM23.854 23.097h-1.736v1.779h1.736v-1.78zM23.854 27.11h-1.736v1.759h1.736v-1.76zM23.854 31.122h-1.736v1.76h1.736v-1.76zM23.854 29.106h-1.736v1.78h1.736v-1.78zM23.854 25.113h-1.736v1.759h1.736v-1.76zM25.823 25.113h-1.735v1.759h1.735v-1.76zM25.823 31.122h-1.735v1.76h1.735v-1.76zM25.823 27.11h-1.735v1.759h1.735v-1.76zM25.823 29.106h-1.735v1.78h1.735v-1.78zM19.896 23.097H18.16v1.779h1.736v-1.78zM17.926 25.113h-1.755v1.759h1.755v-1.76zM17.926 23.097h-1.755v1.779h1.755v-1.78zM17.926 27.11h-1.755v1.759h1.755v-1.76zM19.896 31.122H18.16v1.76h1.736v-1.76zM21.884 31.122h-1.755v1.76h1.755v-1.76zM17.926 29.106h-1.755v1.78h1.755v-1.78zM19.896 25.113H18.16v1.759h1.736v-1.76zM19.896 29.106H18.16v1.78h1.736v-1.78zM19.896 27.11H18.16v1.759h1.736v-1.76zM36.002 31.122h-1.736v1.76h1.736v-1.76zM36.002 29.106h-1.736v1.78h1.736v-1.78zM32.044 19.083h-1.736v1.78h1.736v-1.78zM34.032 23.097h-1.755v1.779h1.755v-1.78zM34.032 31.122h-1.755v1.76h1.755v-1.76zM36.002 23.097h-1.736v1.779h1.736v-1.78zM37.972 25.113h-1.736v1.759h1.736v-1.76zM37.972 27.11h-1.736v1.759h1.736v-1.76zM36.002 27.11h-1.736v1.759h1.736v-1.76zM36.002 25.113h-1.736v1.759h1.736v-1.76zM37.972 29.106h-1.736v1.78h1.736v-1.78zM32.044 21.1h-1.736v1.76h1.736V21.1zM30.074 27.11H28.32v1.759h1.755v-1.76zM32.044 23.097h-1.736v1.779h1.736v-1.78zM30.074 23.097H28.32v1.779h1.755v-1.78zM30.074 29.106H28.32v1.78h1.755v-1.78zM30.074 31.122H28.32v1.76h1.755v-1.76zM30.074 21.1H28.32v1.76h1.755V21.1zM30.074 25.113H28.32v1.759h1.755v-1.76zM32.044 25.113h-1.736v1.759h1.736v-1.76zM32.044 27.11h-1.736v1.759h1.736v-1.76zM32.044 29.106h-1.736v1.78h1.736v-1.78zM32.044 31.122h-1.736v1.76h1.736v-1.76zM30.074 19.083H28.32v1.78h1.755v-1.78z" fill="#E8344E"/>
</svg>
